<?xml version="1.0" encoding="utf-8"?>
<!-- Generator: Adobe Illustrator 22.1.0, SVG Export Plug-In . SVG Version: 6.00 Build 0)  -->
<svg version="1.1"
	 id="Layer_1" xmlns:cc="http://creativecommons.org/ns#" xmlns:dc="http://purl.org/dc/elements/1.1/" xmlns:rdf="http://www.w3.org/1999/02/22-rdf-syntax-ns#"
	 xmlns="http://www.w3.org/2000/svg" xmlns:xlink="http://www.w3.org/1999/xlink" x="0px" y="0px" viewBox="0 0 128 128"
	 style="enable-background:new 0 0 128 128;" xml:space="preserve">
<style type="text/css">
	.st0{fill:#428F3C;}
	.st1{fill:#FFFFFF;}
</style>
<path class="st0" d="M20,0h88c11,0,20,9,20,20v88c0,11-9,20-20,20H20c-11,0-20-9-20-20V20C0,9,9,0,20,0z"/>
<path class="st1" d="M64,24c-18.3,0-33.7,13.8-35.8,32c-0.1,0-0.2,0-0.2,0C17,56,8,65,8,76s9,20,20,20h36h32c13.3,0,24-10.7,24-24
	c0-12.5-9.6-22.9-22.1-23.9C92.9,33.7,79.3,24,64,24L64,24z M64,36c13.3,0,24,10.7,24,24S77.3,84,64,84S40,73.3,40,60S50.7,36,64,36
	z"/>
</svg>
