<?xml version="1.0" encoding="utf-8"?>
<!-- Generator: Adobe Illustrator 22.1.0, SVG Export Plug-In . SVG Version: 6.00 Build 0)  -->
<svg version="1.1"
	 id="Layer_1" xmlns:cc="http://creativecommons.org/ns#" xmlns:dc="http://purl.org/dc/elements/1.1/" xmlns:rdf="http://www.w3.org/1999/02/22-rdf-syntax-ns#"
	 xmlns="http://www.w3.org/2000/svg" xmlns:xlink="http://www.w3.org/1999/xlink" x="0px" y="0px" viewBox="0 0 32 32"
	 style="enable-background:new 0 0 32 32;" xml:space="preserve">
<style type="text/css">
	.st0{fill:#428F3C;}
	.st1{fill:#FFFFFF;}
</style>
<path class="st0" d="M5,0h22c2.8,0,5,2.2,5,5v22c0,2.8-2.2,5-5,5H5c-2.8,0-5-2.2-5-5V5C0,2.2,2.2,0,5,0z"/>
<path class="st1" d="M16,6c-4.6,0-8.4,3.4-8.9,8c0,0,0,0-0.1,0c-2.8,0-5,2.2-5,5s2.2,5,5,5h9h8c3.3,0,6-2.7,6-6c0-3.1-2.4-5.7-5.5-6
	C23.2,8.4,19.8,6,16,6z M16,9c3.3,0,6,2.7,6,6s-2.7,6-6,6s-6-2.7-6-6S12.7,9,16,9z"/>
</svg>
