<?xml version="1.0" encoding="utf-8"?>
<!-- Generator: Adobe Illustrator 22.1.0, SVG Export Plug-In . SVG Version: 6.00 Build 0)  -->
<svg version="1.1"
	 id="Layer_1" xmlns:cc="http://creativecommons.org/ns#" xmlns:dc="http://purl.org/dc/elements/1.1/" xmlns:rdf="http://www.w3.org/1999/02/22-rdf-syntax-ns#"
	 xmlns="http://www.w3.org/2000/svg" xmlns:xlink="http://www.w3.org/1999/xlink" x="0px" y="0px" viewBox="0 0 252 120"
	 style="enable-background:new 0 0 252 120;" xml:space="preserve">
<style type="text/css">
	.st0{fill:#FFFFFF;}
</style>
<path class="st0" d="M135.8,10.4c-16.4,0-30.1,12.3-31.9,28.6c-0.1,0-0.1,0-0.2,0c-9.9,0-17.9,8-17.9,17.9s8,17.9,17.9,17.9l0,0
	h32.1h28.6c11.8,0,21.4-9.6,21.4-21.4l0,0c0-11.2-8.6-20.4-19.7-21.3C161.6,19.1,149.5,10.4,135.8,10.4L135.8,10.4z M135.8,21.1
	c11.8,0,21.4,9.6,21.4,21.4S147.7,64,135.8,64s-21.4-9.6-21.4-21.4S124,21.1,135.8,21.1z"/>
<g>
	<path class="st0" d="M33.6,115.3h-6.1v-3.7c-1,1.4-2.2,2.5-3.6,3.2s-2.8,1-4.2,1c-2.9,0-5.3-1.2-7.3-3.5s-3.1-5.5-3.1-9.6
		c0-4.2,1-7.4,3-9.6s4.5-3.3,7.5-3.3c2.8,0,5.2,1.2,7.2,3.5V81h6.6C33.6,81,33.6,115.3,33.6,115.3z M16,102.3c0,2.7,0.4,4.6,1.1,5.8
		c1.1,1.7,2.5,2.6,4.5,2.6c1.5,0,2.8-0.6,3.9-1.9s1.6-3.2,1.6-5.8c0-2.9-0.5-4.9-1.5-6.2s-2.4-1.9-4-1.9s-2.9,0.6-3.9,1.9
		S16,99.9,16,102.3z"/>
	<path class="st0" d="M38.6,102.5c0-2.2,0.5-4.3,1.6-6.4s2.6-3.6,4.6-4.7s4.2-1.6,6.6-1.6c3.8,0,6.9,1.2,9.3,3.7s3.6,5.5,3.6,9.3
		s-1.2,6.9-3.6,9.4s-5.5,3.7-9.2,3.7c-2.3,0-4.5-0.5-6.5-1.5s-3.6-2.5-4.7-4.5S38.6,105.4,38.6,102.5z M45.3,102.9
		c0,2.5,0.6,4.4,1.8,5.7s2.6,2,4.3,2s3.2-0.7,4.3-2s1.7-3.2,1.7-5.7c0-2.4-0.6-4.3-1.7-5.6s-2.6-2-4.3-2s-3.2,0.7-4.3,2
		S45.3,100.4,45.3,102.9z"/>
	<path class="st0" d="M91.1,97.8L84.6,99c-0.2-1.3-0.7-2.3-1.5-2.9s-1.8-1-3-1c-1.6,0-2.9,0.6-3.9,1.7s-1.5,3-1.5,5.7
		c0,3,0.5,5,1.5,6.3s2.3,1.8,4,1.8c1.2,0,2.3-0.4,3.1-1.1s1.4-1.9,1.7-3.7l6.5,1.1c-0.7,3-2,5.2-3.9,6.7s-4.5,2.3-7.7,2.3
		c-3.6,0-6.5-1.1-8.7-3.4S68,107,68,102.9s1.1-7.3,3.3-9.6s5.1-3.4,8.8-3.4c3,0,5.4,0.7,7.2,2S90.3,95.1,91.1,97.8z"/>
	<path class="st0" d="M112.5,115.3v-3.7c-0.9,1.3-2.1,2.4-3.6,3.1s-3,1.1-4.7,1.1s-3.2-0.4-4.5-1.1s-2.3-1.8-2.9-3.1
		s-0.9-3.2-0.9-5.5V90.4h6.6v11.4c0,3.5,0.1,5.6,0.4,6.4s0.7,1.4,1.3,1.9s1.5,0.7,2.4,0.7c1.1,0,2.1-0.3,3-0.9s1.5-1.4,1.8-2.3
		s0.5-3.2,0.5-6.7V90.4h6.6v24.9H112.5z"/>
	<path class="st0" d="M123.7,104.2l6.8-0.7c0.4,2.3,1.2,3.9,2.5,5s2.9,1.6,5,1.6c2.2,0,3.9-0.5,5.1-1.4s1.7-2.1,1.7-3.3
		c0-0.8-0.2-1.5-0.7-2.1s-1.3-1.1-2.5-1.5c-0.8-0.3-2.7-0.8-5.6-1.5c-3.7-0.9-6.3-2.1-7.8-3.4C126,95,125,92.7,125,90
		c0-1.8,0.5-3.4,1.5-4.9s2.4-2.7,4.3-3.5s4.1-1.2,6.8-1.2c4.3,0,7.6,0.9,9.7,2.8s3.3,4.4,3.4,7.6l-6.9,0.3c-0.3-1.8-0.9-3-1.9-3.8
		s-2.4-1.2-4.4-1.2s-3.6,0.4-4.7,1.2c-0.7,0.5-1.1,1.2-1.1,2.1c0,0.8,0.3,1.5,1,2.1c0.9,0.7,3,1.5,6.4,2.3s5.9,1.6,7.5,2.5
		s2.9,2,3.8,3.5s1.4,3.3,1.4,5.5c0,2-0.5,3.8-1.6,5.5s-2.6,3-4.6,3.8s-4.5,1.3-7.5,1.3c-4.3,0-7.7-1-10-3S124.2,108,123.7,104.2z"/>
	<path class="st0" d="M168.9,90.4v5.2h-4.5v10c0,2,0,3.2,0.1,3.6s0.3,0.6,0.6,0.8s0.7,0.3,1.1,0.3c0.6,0,1.5-0.2,2.6-0.6l0.6,5.1
		c-1.5,0.7-3.3,1-5.2,1c-1.2,0-2.3-0.2-3.2-0.6s-1.7-0.9-2.1-1.5s-0.8-1.5-0.9-2.6c-0.1-0.8-0.2-2.3-0.2-4.6V95.7h-3v-5.2h3v-4.9
		l6.6-3.8v8.8h4.5V90.4z"/>
	<path class="st0" d="M171.9,102.5c0-2.2,0.5-4.3,1.6-6.4s2.6-3.6,4.6-4.7s4.2-1.6,6.6-1.6c3.8,0,6.9,1.2,9.3,3.7s3.6,5.5,3.6,9.3
		s-1.2,6.9-3.6,9.4s-5.5,3.7-9.2,3.7c-2.3,0-4.5-0.5-6.5-1.5s-3.6-2.5-4.7-4.5S171.9,105.4,171.9,102.5z M178.7,102.9
		c0,2.5,0.6,4.4,1.8,5.7s2.6,2,4.3,2s3.2-0.7,4.3-2s1.7-3.2,1.7-5.7c0-2.4-0.6-4.3-1.7-5.6s-2.6-2-4.3-2s-3.2,0.7-4.3,2
		S178.7,100.4,178.7,102.9z"/>
	<path class="st0" d="M209.1,115.3h-6.6V90.4h6.1V94c1-1.7,2-2.8,2.8-3.3s1.8-0.8,2.8-0.8c1.5,0,2.9,0.4,4.3,1.2l-2,5.7
		c-1.1-0.7-2.1-1.1-3.1-1.1c-0.9,0-1.7,0.3-2.3,0.8s-1.1,1.4-1.5,2.8s-0.6,4.1-0.6,8.3v7.7H209.1z"/>
	<path class="st0" d="M235.8,107.4l6.6,1.1c-0.8,2.4-2.2,4.2-4,5.5s-4.1,1.9-6.8,1.9c-4.3,0-7.5-1.4-9.6-4.2
		c-1.6-2.3-2.5-5.1-2.5-8.6c0-4.1,1.1-7.4,3.2-9.7s4.9-3.5,8.2-3.5c3.7,0,6.6,1.2,8.8,3.7s3.2,6.2,3.1,11.2h-16.5
		c0,2,0.6,3.5,1.6,4.6s2.3,1.6,3.8,1.6c1,0,1.9-0.3,2.6-0.8S235.5,108.7,235.8,107.4z M236.2,100.8c0-1.9-0.5-3.4-1.5-4.3
		s-2.1-1.5-3.4-1.5c-1.4,0-2.6,0.5-3.6,1.6s-1.4,2.5-1.4,4.3L236.2,100.8L236.2,100.8z"/>
</g>
</svg>
